<svg id="Layer_1" data-name="Layer 1" xmlns="http://www.w3.org/2000/svg" viewBox="0 0 517.62 561.29"><defs><style>.cls-1{font-size:99px;font-family:Montserrat-SemiBold, Montserrat;font-weight:600;}.cls-1,.cls-9{fill:#1d1d1b;}.cls-2{letter-spacing:0em;}.cls-3{letter-spacing:0em;}.cls-4{letter-spacing:-0.01em;}.cls-5{fill:none;}.cls-6{fill:#fff;}.cls-7{fill:#cc1517;}.cls-8{fill:#71b739;}.cls-10{fill:#69b42d;}</style></defs><text x="-357.94" y="-124.87"/><text class="cls-1" transform="translate(23.1 535.05)"><tspan class="cls-2">E</tspan><tspan class="cls-3" x="65.84" y="0">atSa</tspan><tspan class="cls-4" x="290.27" y="0">f</tspan><tspan x="326.01" y="0">e</tspan></text><line class="cls-5" x1="208.67" y1="0.57" x2="208.67" y2="29.38"/><path class="cls-6" d="M609.69,326.27c1.11-.23,2.22-.51,3.29-.84C612.66,325.49,611.46,325.75,609.69,326.27Zm0,0c1.11-.23,2.22-.51,3.29-.84C612.66,325.49,611.46,325.75,609.69,326.27Zm0,0c1.11-.23,2.22-.51,3.29-.84C612.66,325.49,611.46,325.75,609.69,326.27Zm-21.38-172v123h.9v-123Zm-8.7,0V276l.14,1.31v-123Zm-13-29.31v.5c1.83,0,3.66-.07,5.5-.07q3.76,0,7.5.13c2.92.1,5.82.25,8.7.47q6.56.48,13,1.35c70.25,9.42,130,52.36,162.7,112.15a276.23,276.23,0,0,0-72,39.61c-37.81,28.9-67.62,67.34-88.6,114.25q-1.08,2.42-2.13,4.86a368.64,368.64,0,0,0-13,35.29q-4.9,15.6-8.7,32.21v97.05l.52,0c1.81-.06,3.62-.15,5.43-.25l2.75-.19q6.56-.48,13-1.34c107.15-14.28,189.8-106,189.8-217.07a218,218,0,0,0-20.58-92.79q-2.81-6-6-11.81A219.14,219.14,0,0,0,601.31,126.8q-6.43-.85-13-1.34c-2.88-.21-5.79-.37-8.7-.46q-3.74-.14-7.5-.13C570.27,124.87,568.44,124.89,566.61,124.94ZM770,251.27a217.16,217.16,0,0,1,20.61,92.6c0,110.58-82.58,202.24-189.3,216.55q-6.45.87-13,1.35l-2.66.19q1.22-6.78,2.66-13.51c2.3-10.67,5.08-21.22,8.43-31.6,1.49-4.4,2.86-8.86,4.57-13.19l.27-.69c.88-2.29,1.73-4.59,2.63-6.87l2.9-6.75,1.46-3.38,1.59-3.31,3.21-6.62c2.35-4.3,4.55-8.7,7.14-12.87s5.21-8.31,7.91-12.42l4.31-6c.7-1,1.48-2,2.24-2.93l2.29-2.89a180.77,180.77,0,0,1,20.28-21.41l2.77-2.46,2.86-2.35c1.88-1.6,3.87-3.06,5.83-4.55,1-.76,2-1.47,3-2.17l3-2.12,3.12-2,1.56-1,1.59-.94A127.43,127.43,0,0,1,694.45,393a87.5,87.5,0,0,1,14-5.15,87.16,87.16,0,0,0-14.25,4.46,129.52,129.52,0,0,0-13.58,6.31l-1.65.88-1.63.93L674,402.32l-3.18,2c-1.06.65-2.12,1.32-3.15,2-2.07,1.41-4.16,2.79-6.15,4.32l-3,2.24-2.94,2.35a185.11,185.11,0,0,0-21.77,20.79l-2.49,2.83c-.83.95-1.67,1.89-2.44,2.88l-4.73,5.9c-3,4-6,8.07-8.73,12.32-2.88,4.14-5.37,8.53-8,12.83l-3.63,6.63L602,482.77l-.68,1.38-1,2L597,493c-1,2.3-2,4.61-3,6.92-2.09,4.53-3.8,9.21-5.63,13.84l-.07.18q-3.13,8.26-5.8,16.68,2.16-21.54,5.87-41.72a427,427,0,0,1,13-52.52c19.74-62.11,52.69-111.63,98.08-146.5A262.39,262.39,0,0,1,770,251.27Zm-160.31,75c1.11-.23,2.22-.51,3.29-.84C612.66,325.49,611.46,325.75,609.69,326.27Z" transform="translate(-357.94 -124.87)"/><path class="cls-7" d="M566.61,125.44v28.81h13.14v123h8.56V126c-2.88-.22-5.78-.37-8.7-.47q-3.74-.14-7.5-.13C570.27,125.37,568.44,125.39,566.61,125.44Z" transform="translate(-357.94 -124.87)"/><path class="cls-7" d="M579.61,357v108.7q3.79-16.6,8.7-32.21a368.64,368.64,0,0,1,13-35.29q1.05-2.44,2.13-4.86c21-46.91,50.79-85.35,88.6-114.25a276.23,276.23,0,0,1,72-39.61c-32.66-59.79-92.45-102.73-162.7-112.15q-6.45-.87-13-1.35v28.28h13.07V273h9.45V154.25h3.45c7.51,0,13.73,4.75,14.18,10.83L636,296.87c1,12.94-8.83,24.3-23,28.54H613c-1.07.33-2.18.61-3.29.84h0a57.22,57.22,0,0,0-8.34,3.23,44.35,44.35,0,0,0-13,9.25A32,32,0,0,0,579.61,357Z" transform="translate(-357.94 -124.87)"/><path class="cls-8" d="M588.31,548.45q-1.45,6.72-2.66,13.51l2.66-.19q6.56-.48,13-1.35c106.72-14.31,189.3-106,189.3-216.55A217.16,217.16,0,0,0,770,251.27a262.39,262.39,0,0,0-70.61,38.56c-45.39,34.87-78.34,84.39-98.08,146.5a427,427,0,0,0-13,52.52q-3.72,20.17-5.87,41.72,2.67-8.42,5.8-16.68l.07-.18c1.83-4.63,3.54-9.31,5.63-13.84,1-2.31,2-4.62,3-6.92l3.33-6.79,1-2,.68-1.38,1.82-3.33,3.63-6.63c2.63-4.3,5.12-8.69,8-12.83,2.71-4.25,5.76-8.27,8.73-12.32l4.73-5.9c.77-1,1.61-1.93,2.44-2.88l2.49-2.83a185.11,185.11,0,0,1,21.77-20.79l2.94-2.35,3-2.24c2-1.53,4.08-2.91,6.15-4.32,1-.72,2.09-1.39,3.15-2l3.18-2,3.26-1.87,1.63-.93,1.65-.88a129.52,129.52,0,0,1,13.58-6.31,87.16,87.16,0,0,1,14.25-4.46,87.5,87.5,0,0,0-14,5.15A127.43,127.43,0,0,0,681.32,400l-1.59.94-1.56,1-3.12,2L672,406c-1,.7-2,1.41-3,2.17-2,1.49-4,2.95-5.83,4.55l-2.86,2.35-2.77,2.46A180.77,180.77,0,0,0,637.26,439L635,441.85c-.76,1-1.54,1.92-2.24,2.93l-4.31,6c-2.7,4.11-5.47,8.16-7.91,12.42s-4.79,8.57-7.14,12.87l-3.21,6.62L608.57,486l-1.46,3.38-2.9,6.75c-.9,2.28-1.75,4.58-2.63,6.87l-.27.69c-1.71,4.33-3.08,8.79-4.57,13.19C593.39,527.23,590.61,537.78,588.31,548.45Z" transform="translate(-357.94 -124.87)"/><path class="cls-9" d="M566.61,154.25Z" transform="translate(-357.94 -124.87)"/><path class="cls-9" d="M613,325.43c-.32.06-1.52.32-3.29.84C610.8,326,611.91,325.76,613,325.43Z" transform="translate(-357.94 -124.87)"/><line class="cls-5" x1="224.5" y1="29.38" x2="224.5" y2="0.57"/><path class="cls-6" d="M536.07,325.43c1.07.33,2.18.61,3.29.84C537.59,325.75,536.39,325.49,536.07,325.43Zm0,0c1.07.33,2.18.61,3.29.84C537.59,325.75,536.39,325.49,536.07,325.43Zm0,0c1.07.33,2.18.61,3.29.84C537.59,325.75,536.39,325.49,536.07,325.43Zm23.77-171.18v123h.9v-123Zm9.46,0v123l.14-1.31V154.25Zm7.64-29.38q-3.77,0-7.5.13c-2.91.09-5.82.25-8.7.46q-6.56.48-13,1.34A219.14,219.14,0,0,0,384.49,239.27q-3.17,5.8-6,11.81a218,218,0,0,0-20.58,92.79c0,111.05,82.65,202.79,189.8,217.07q6.43.85,13,1.34l2.75.19c1.81.1,3.62.19,5.43.25l.52,0V465.69q-3.8-16.6-8.7-32.21a368.64,368.64,0,0,0-13-35.29q-1.05-2.44-2.13-4.86c-21-46.91-50.79-85.35-88.6-114.25a276.23,276.23,0,0,0-72-39.61c32.66-59.79,92.45-102.73,162.7-112.15q6.45-.87,13-1.35c2.88-.22,5.78-.37,8.7-.47q3.73-.14,7.5-.13c1.84,0,3.67,0,5.5.07v-.5C580.61,124.89,578.78,124.87,576.94,124.87Zm-127.28,165c45.39,34.87,78.34,84.39,98.08,146.5a427,427,0,0,1,13,52.52q3.72,20.17,5.87,41.72-2.67-8.42-5.8-16.68l-.07-.18c-1.83-4.63-3.54-9.31-5.63-13.84-1-2.31-2-4.62-3.05-6.92l-3.33-6.79-1-2-.68-1.38-1.82-3.33-3.63-6.63c-2.63-4.3-5.12-8.69-8-12.83-2.71-4.25-5.76-8.27-8.73-12.32l-4.73-5.9c-.77-1-1.61-1.93-2.44-2.88l-2.49-2.83a185.11,185.11,0,0,0-21.77-20.79l-2.94-2.35-3-2.24c-2-1.53-4.08-2.91-6.15-4.32-1-.72-2.09-1.39-3.15-2l-3.18-2-3.26-1.87-1.63-.93-1.65-.88a129.52,129.52,0,0,0-13.58-6.31,87.16,87.16,0,0,0-14.25-4.46,87.5,87.5,0,0,1,14,5.15A127.43,127.43,0,0,1,467.73,400l1.59.94,1.56,1,3.12,2,3,2.12c1,.7,2,1.41,3,2.17,2,1.49,3.95,2.95,5.83,4.55l2.86,2.35,2.77,2.46A180.77,180.77,0,0,1,511.79,439l2.29,2.89c.76,1,1.54,1.92,2.24,2.93l4.31,6c2.7,4.11,5.47,8.16,7.91,12.42,2.59,4.17,4.79,8.57,7.14,12.87l3.21,6.62,1.59,3.31,1.46,3.38,2.9,6.75c.9,2.28,1.75,4.58,2.63,6.87l.27.69c1.71,4.33,3.08,8.79,4.57,13.19,3.35,10.38,6.13,20.93,8.43,31.6q1.46,6.72,2.66,13.51l-2.66-.19q-6.56-.48-13-1.35c-106.72-14.31-189.3-106-189.3-216.55a217.16,217.16,0,0,1,20.61-92.6A262.39,262.39,0,0,1,449.66,289.83Zm86.41,35.6c1.07.33,2.18.61,3.29.84C537.59,325.75,536.39,325.49,536.07,325.43Z" transform="translate(-357.94 -124.87)"/><path class="cls-7" d="M582.44,125.44v28.81H569.3v123h-8.56V126c2.88-.22,5.78-.37,8.7-.47q3.73-.14,7.5-.13C578.78,125.37,580.61,125.39,582.44,125.44Z" transform="translate(-357.94 -124.87)"/><path class="cls-7" d="M569.44,357v108.7q-3.8-16.6-8.7-32.21a368.64,368.64,0,0,0-13-35.29q-1.05-2.44-2.13-4.86c-21-46.91-50.79-85.35-88.6-114.25a276.23,276.23,0,0,0-72-39.61c32.66-59.79,92.45-102.73,162.7-112.15q6.45-.87,13-1.35v28.28H547.67V273h-9.45V154.25h-3.45c-7.51,0-13.73,4.75-14.18,10.83L513,296.87c-1,12.94,8.83,24.3,23,28.54h.08c1.07.33,2.18.61,3.29.84h0a57.22,57.22,0,0,1,8.34,3.23,44.35,44.35,0,0,1,13,9.25A32,32,0,0,1,569.44,357Z" transform="translate(-357.94 -124.87)"/><path class="cls-10" d="M560.74,548.45q1.46,6.72,2.66,13.51l-2.66-.19q-6.56-.48-13-1.35c-106.72-14.31-189.3-106-189.3-216.55a217.16,217.16,0,0,1,20.61-92.6,262.39,262.39,0,0,1,70.61,38.56c45.39,34.87,78.34,84.39,98.08,146.5a427,427,0,0,1,13,52.52q3.72,20.17,5.87,41.72-2.67-8.42-5.8-16.68l-.07-.18c-1.83-4.63-3.54-9.31-5.63-13.84-1-2.31-2-4.62-3.05-6.92l-3.33-6.79-1-2-.68-1.38-1.82-3.33-3.63-6.63c-2.63-4.3-5.12-8.69-8-12.83-2.71-4.25-5.76-8.27-8.73-12.32l-4.73-5.9c-.77-1-1.61-1.93-2.44-2.88l-2.49-2.83a185.11,185.11,0,0,0-21.77-20.79l-2.94-2.35-3-2.24c-2-1.53-4.08-2.91-6.15-4.32-1-.72-2.09-1.39-3.15-2l-3.18-2-3.26-1.87-1.63-.93-1.65-.88a129.52,129.52,0,0,0-13.58-6.31,87.16,87.16,0,0,0-14.25-4.46,87.5,87.5,0,0,1,14,5.15A127.43,127.43,0,0,1,467.73,400l1.59.94,1.56,1,3.12,2,3,2.12c1,.7,2,1.41,3,2.17,2,1.49,3.95,2.95,5.83,4.55l2.86,2.35,2.77,2.46A180.77,180.77,0,0,1,511.79,439l2.29,2.89c.76,1,1.54,1.92,2.24,2.93l4.31,6c2.7,4.11,5.47,8.16,7.91,12.42,2.59,4.17,4.79,8.57,7.14,12.87l3.21,6.62,1.59,3.31,1.46,3.38,2.9,6.75c.9,2.28,1.75,4.58,2.63,6.87l.27.69c1.71,4.33,3.08,8.79,4.57,13.19C555.66,527.23,558.44,537.78,560.74,548.45Z" transform="translate(-357.94 -124.87)"/><path class="cls-9" d="M582.44,154.25Z" transform="translate(-357.94 -124.87)"/><path class="cls-9" d="M536.07,325.43c.32.06,1.52.32,3.29.84C538.25,326,537.14,325.76,536.07,325.43Z" transform="translate(-357.94 -124.87)"/></svg>